<?xml version="1.0" encoding="UTF-8" standalone="no"?>
<svg
   viewBox="0 0 200 200"
   version="1.1"
   id="svg11"
   sodipodi:docname="blob-2.svg"
   inkscape:version="1.1.1 (c3084ef, 2021-09-22)"
   xmlns:inkscape="http://www.inkscape.org/namespaces/inkscape"
   xmlns:sodipodi="http://sodipodi.sourceforge.net/DTD/sodipodi-0.dtd"
   xmlns="http://www.w3.org/2000/svg"
   xmlns:svg="http://www.w3.org/2000/svg">
  <defs
     id="defs15" />
  <sodipodi:namedview
     id="namedview13"
     pagecolor="#ffffff"
     bordercolor="#666666"
     borderopacity="1.0"
     inkscape:pageshadow="2"
     inkscape:pageopacity="0.0"
     inkscape:pagecheckerboard="0"
     showgrid="false"
     inkscape:zoom="2.755"
     inkscape:cx="99.818512"
     inkscape:cy="100"
     inkscape:window-width="1312"
     inkscape:window-height="773"
     inkscape:window-x="0"
     inkscape:window-y="25"
     inkscape:window-maximized="0"
     inkscape:current-layer="svg11" />
  <path
     fill="rgb(255 186 197 / 40%)"
     d="M61.6,-48.1C72.7,-35.3,69.5,-10.1,62.7,12.2C56,34.5,45.6,53.9,29.8,61.3C13.9,68.7,-7.4,64.2,-23.8,54.4C-40.3,44.6,-51.8,29.5,-59.7,9.5C-67.6,-10.6,-71.9,-35.6,-61.3,-48.3C-50.7,-61,-25.4,-61.4,0,-61.3C25.3,-61.3,50.5,-60.9,61.6,-48.1Z"
     transform="translate(100 100)"
     id="path9"
     style="fill:#44aa00" />
  <path
     style="fill:#44aa00;stroke-width:0.362976"
     d="M 107.6225,164.57425 C 94.175993,163.5708 78.821408,157.20171 67.150635,147.7865 60.652505,142.54423 53.343008,133.96875 48.626024,126.05347 41.538802,114.16085 35.890151,98.641034 33.515424,84.536715 c -0.503562,-2.990828 -0.66047,-5.771321 -0.643148,-11.396969 0.0211,-6.85248 0.09831,-7.720606 0.976236,-10.975933 1.393089,-5.165549 3.129369,-8.249103 6.60634,-11.732554 5.768953,-5.779705 13.669385,-8.672479 28.873642,-10.572195 4.609332,-0.575919 8.28429,-0.657612 29.582577,-0.657612 25.216469,0 28.437889,0.14014 37.749549,1.642205 21.01143,3.389356 29.93119,11.905603 31.76898,30.331799 1.91003,19.150591 -7.62379,53.952704 -19.7788,72.200224 -10.68656,16.04302 -23.23471,22.52643 -41.0283,21.19857 z"
     id="path242" />
  <path
     style="fill:#afe9af;stroke-width:0.362976"
     d="M 107.6225,164.57425 C 99.686686,163.98204 90.132138,161.23833 81.879299,157.18176 61.458429,147.14417 47.178885,129.44355 38.238279,103.0853 34.764147,92.843031 33.05841,84.17302 32.76758,75.278523 32.391615,63.780372 34.471806,56.657383 39.88433,50.909351 46.207558,44.194163 56.97596,40.67779 75.136116,39.398039 c 6.876134,-0.484563 41.014224,-0.485207 48.463544,-9.15e-4 30.94104,2.01153 42.69186,10.341259 44.82994,31.778332 1.68634,16.907764 -5.88934,47.718064 -16.39352,66.672534 -11.01034,19.8678 -24.8356,28.18727 -44.41358,26.72626 z"
     id="path281" />
</svg>
